#!OML:ASF F:\VICON\USERDATA\INSTALL\rory3\rory3.ASF
:FULLY-SPECIFIED
:DEGREES
636
root 0.554335 15.6782 3.73392 9.78674 -43.0581 13.0721
lowerback 1.80662 6.69681 8.94476
upperback 6.71475 8.94041 -3.76078
thorax 8.20026 5.15284 -8.40153
lowerneck -4.23265 -4.55799 -10.4566
upperneck 52.0979 -8.32857 4.65319
head 24.4365 -4.84866 3.14981
rclavicle -1.27222e-014 -3.97569e-014
rhumerus -45.4473 55.1745 -123.539
rradius 78.6951
rwrist -2.35303
rhand -18.9321 -40.8254
rfingers 7.12502
rthumb 7.37071 -70.677
lclavicle -1.27222e-014 -3.97569e-014
lhumerus -23.6358 -75.3743 98.762
lradius 100.172
lwrist 41.3089
lhand -25.0549 -30.6456
lfingers 7.12502
lthumb 1.45856 -0.670874
rfemur -61.6237 -6.40206 9.73102
rtibia 85.5219
rfoot -11.8705 -17.3139
rtoes -27.3223
lfemur -52.2501 -23.3205 -28.741
ltibia 57.3147
lfoot -22.5648 0.397327
ltoes 7.94481
637
root 0.550875 15.6707 3.72351 9.87107 -42.9422 13.0607
lowerback 1.97801 6.6448 8.88381
upperback 6.70912 8.88022 -3.72331
thorax 8.06186 5.11126 -8.35535
lowerneck -4.20055 -4.56249 -10.4749
upperneck 52.092 -8.26811 4.53335
head 24.3853 -4.83696 3.09498
rclavicle -8.82604e-014 -4.45278e-014
rhumerus -45.8009 55.1973 -123.826
rradius 79.1806
rwrist -2.21561
rhand -18.6283 -41.5233
rfingers 7.12502
rthumb 7.6639 -71.3645
lclavicle -8.82604e-014 -4.45278e-014
lhumerus -23.1953 -75.3872 98.4428
lradius 100.166
lwrist 41.1245
lhand -25.085 -30.833
lfingers 7.12502
lthumb 1.42945 -0.857997
rfemur -61.7876 -6.45471 9.81848
rtibia 85.6078
rfoot -11.7679 -17.4861
rtoes -27.6041
lfemur -52.4665 -23.3578 -28.6396
ltibia 57.4409
lfoot -22.528 0.133848
ltoes 8.41802
638
root 0.546505 15.6642 3.72132 9.89001 -42.9314 13.1752
lowerback 2.00812 6.66091 8.72353
upperback 6.75978 8.90659 -3.7571
thorax 8.08355 5.11818 -8.30115
lowerneck -4.38515 -4.62817 -10.2636
upperneck 52.1487 -8.30731 4.31637
head 24.4785 -4.82249 2.91543
rclavicle 7.23576e-014 -1.59028e-015
rhumerus -45.6601 55.2869 -123.814
rradius 79.5172
rwrist -2.02174
rhand -18.5452 -41.4253
rfingers 7.12502
rthumb 7.74415 -71.2635
lclavicle 7.23576e-014 -1.59028e-015
lhumerus -22.661 -75.5941 97.9618
lradius 100.191
lwrist 41.1868
lhand -25.5852 -30.9968
lfingers 7.12502
lthumb 0.946384 -1.01911
rfemur -61.9339 -6.47012 9.72475
rtibia 85.6854
rfoot -12.1513 -17.2326
rtoes -26.8115
lfemur -52.6051 -23.3424 -28.7096
ltibia 57.5295
lfoot -22.5335 0.143858
ltoes 8.2625
639
root 0.543804 15.6602 3.72417 9.91849 -42.8832 13.247
lowerback 2.05086 6.70019 8.66227
upperback 6.77073 8.96716 -3.82382
thorax 8.0866 5.14872 -8.33758
lowerneck -4.44587 -4.71908 -10.0564
upperneck 52.2083 -8.51113 4.31339
head 24.5894 -4.85474 2.83325
rclavicle -2.14687e-014 -1.11319e-014
rhumerus -45.423 55.233 -123.816
rradius 79.8141
rwrist -2.05172
rhand -18.7238 -40.8744
rfingers 7.12502
rthumb 7.5717 -70.7189
lclavicle -2.14687e-014 -1.11319e-014
lhumerus -22.6708 -75.6442 97.9934
lradius 100.22
lwrist 41.4531
lhand -25.1623 -30.5293
lfingers 7.12502
lthumb 1.3548 -0.553865
rfemur -61.973 -6.54456 9.64469
rtibia 85.6837
rfoot -12.8978 -16.48
rtoes -26.1456
lfemur -52.687 -23.3808 -28.7672
ltibia 57.6033
lfoot -22.5486 0.212229
ltoes 8.07141
640
root 0.532033 15.6693 3.71594 10.0409 -43.4537 12.9742
lowerback 2.40165 6.92552 8.5428
upperback 6.71296 9.29089 -3.78042
thorax 7.86273 5.28843 -8.23552
lowerneck -4.27552 -4.77055 -10.105
upperneck 52.1927 -8.68787 4.49242
head 24.5694 -4.91599 2.91766
rclavicle -8.74653e-015 -4.6118e-014
rhumerus -45.5791 55.0716 -124.06
rradius 80.1813
rwrist -1.92566
rhand -18.7884 -40.7107
rfingers 7.12502
rthumb 7.50938 -70.5574
lclavicle -8.74653e-015 -4.6118e-014
lhumerus -23.1744 -75.5033 98.5797
lradius 100.269
lwrist 41.7135
lhand -24.4022 -30.1665
lfingers 7.12502
lthumb 2.08889 -0.196957
rfemur -61.9658 -5.89593 9.82194
rtibia 85.5613
rfoot -12.6202 -17.0515
rtoes -25.4731
lfemur -52.6424 -22.8377 -28.6077
ltibia 57.6528
lfoot -22.6389 0.333744
ltoes 7.85364
641
root 0.49981 15.6975 3.67939 10.2744 -45.4406 12.1353
lowerback 3.4062 7.55117 8.06411
upperback 6.62186 10.1776 -3.6015
thorax 7.25037 5.66295 -7.83102
lowerneck -4.14591 -4.74154 -10.1715
upperneck 52.1382 -8.65907 4.54844
head 24.4586 -4.91434 2.97018
rclavicle -1.03368e-014 -6.36111e-014
rhumerus -46.001 55.1784 -124.481
rradius 80.5906
rwrist -1.84289
rhand -18.7677 -40.6188
rfingers 7.12502
rthumb 7.52936 -70.4648
lclavicle -1.03368e-014 -6.36111e-014
lhumerus -23.6782 -75.245 99.1315
lradius 100.379
lwrist 41.8244
lhand -23.8083 -29.55
lfingers 7.12502
lthumb 2.66246 0.413112
rfemur -61.927 -3.5855 10.3399
rtibia 85.2502
rfoot -12.2035 -17.5746
rtoes -25.8023
lfemur -52.3625 -20.9917 -28.0551
ltibia 57.7276
lfoot -22.9845 0.202038
ltoes 8.60333
642
root 0.500635 15.6967 3.67824 10.358 -45.1594 12.1203
lowerback 3.49582 7.37291 8.15485
upperback 6.55935 9.94301 -3.55403
thorax 7.08761 5.54157 -7.86968
lowerneck -4.08361 -4.65726 -10.2427
upperneck 52.264 -8.46724 4.41706
head 24.5253 -4.87621 2.95208
rclavicle -4.13472e-014 4.77083e-015
rhumerus -46.6826 55.4383 -125.116
rradius 81.0496
rwrist -2.00398
rhand -18.6297 -40.6408
rfingers 7.12502
rthumb 7.66255 -70.482
lclavicle -4.13472e-014 4.77083e-015
lhumerus -24.4987 -74.9519 99.941
lradius 100.474
lwrist 41.8341
lhand -23.8381 -29.1573
lfingers 7.12502
lthumb 2.63371 0.806151
rfemur -61.9496 -3.90154 10.4221
rtibia 85.2266
rfoot -12.0083 -17.5854
rtoes -26.3952
lfemur -52.5172 -21.3913 -27.7196
ltibia 57.7654
lfoot -22.9043 -0.745977
ltoes 10.9617
643
root 0.495966 15.6936 3.68257 10.4179 -45.1107 12.1537
lowerback 3.4285 7.28623 8.11712
upperback 6.52205 9.81979 -3.48696
thorax 7.03638 5.47075 -7.78258
lowerneck -3.97583 -4.5704 -10.4794
upperneck 52.4246 -8.28332 4.37777
head 24.6571 -4.86993 3.02365
rclavicle 5.00937e-014 -4.77083e-015
rhumerus -47.416 55.6933 -125.74
rradius 81.4905
rwrist -2.12569
rhand -18.3975 -41.0669
rfingers 7.12502
rthumb 7.88667 -70.8998
lclavicle 5.00937e-014 -4.77083e-015
lhumerus -25.4364 -74.8124 100.919
lradius 100.447
lwrist 41.4794
lhand -24.785 -29.7324
lfingers 7.12502
lthumb 1.71926 0.240413
rfemur -62.0144 -3.99234 10.4199
rtibia 85.2282
rfoot -11.9653 -17.6307
rtoes -26.6288
lfemur -52.6157 -21.5296 -27.5991
ltibia 57.801
lfoot -22.8697 -1.23073
ltoes 12.4765
644
root 0.494132 15.684 3.67936 10.5166 -45.0454 12.1329
lowerback 3.44668 7.18186 8.42447
upperback 6.5422 9.69017 -3.64094
thorax 7.1132 5.43747 -8.12845
lowerneck -3.99235 -4.48404 -10.4933
upperneck 52.3469 -8.21658 4.56386
head 24.5875 -4.83409 3.14616
rclavicle -5.725e-014 -2.22639e-014
rhumerus -47.4069 56.028 -126.118
rradius 81.8241
rwrist -2.26218
rhand -18.2342 -41.3329
rfingers 7.12502
rthumb 8.04433 -71.1598
lclavicle -5.725e-014 -2.22639e-014
lhumerus -24.9056 -74.9454 100.093
lradius 100.499
lwrist 41.1394
lhand -25.5587 -29.8518
lfingers 7.12502
lthumb 0.971958 0.12572
rfemur -62.1861 -4.03021 10.4868
rtibia 85.3168
rfoot -11.8916 -17.7669
rtoes -26.9141
lfemur -52.7532 -21.5089 -27.5566
ltibia 57.8393
lfoot -22.834 -1.23263
ltoes 12.2393
645
root 0.49281 15.678 3.68177 10.4165 -44.9593 12.314
lowerback 3.56196 7.08058 8.24187
upperback 6.54832 9.55744 -3.59965
thorax 6.98032 5.3531 -8.01227
lowerneck -3.99609 -4.4357 -10.5764
upperneck 52.353 -8.08302 4.489
head 24.5665 -4.80805 3.14489
rclavicle -3.57812e-014 2.06736e-014
rhumerus -47.7364 56.4343 -126.427
rradius 82.2135
rwrist -2.38718
rhand -18.1936 -41.0527
rfingers 7.12502
rthumb 8.08352 -70.8781
lclavicle -3.57812e-014 2.06736e-014
lhumerus -24.7464 -74.6973 99.9397
lradius 100.602
lwrist 40.973
lhand -25.5665 -29.6075
lfingers 7.12502
lthumb 0.964471 0.370076
rfemur -62.2528 -4.19326 10.3722
rtibia 85.4418
rfoot -11.8355 -17.7821
rtoes -27.3354
lfemur -52.7516 -21.536 -27.81
ltibia 57.8524
lfoot -22.8932 -0.720976
ltoes 10.6499
646
root 0.491038 15.6768 3.69031 10.214 -44.8542 12.5565
lowerback 3.61372 6.9848 8.04079
upperback 6.59356 9.42528 -3.52287
thorax 6.91742 5.27002 -7.83588
lowerneck -3.93018 -4.4005 -10.8766
upperneck 52.451 -7.99439 4.53377
head 24.6871 -4.83895 3.25761
rclavicle -5.1684e-014 3.18055e-014
rhumerus -48.3263 56.7519 -126.868
rradius 82.6318
rwrist -2.48708
rhand -18.7624 -40.0708
rfingers 7.12502
rthumb 7.53449 -69.9166
lclavicle -5.1684e-014 3.18055e-014
lhumerus -25.3535 -74.2856 100.711
lradius 100.7
lwrist 40.7601
lhand -25.549 -29.7344
lfingers 7.12502
lthumb 0.981337 0.243112
rfemur -62.1477 -4.41083 10.1636
rtibia 85.4876
rfoot -12.1972 -17.5087
rtoes -26.6955
lfemur -52.648 -21.5117 -28.2727
ltibia 57.8715
lfoot -22.9726 -0.018128
ltoes 8.83323
647
root 0.519973 15.6463 3.71995 10.2152 -42.9604 13.3215
lowerback 2.78153 6.31368 8.42848
upperback 6.60608 8.48458 -3.61642
thorax 7.29057 4.84525 -8.1318
lowerneck -3.84251 -4.38138 -11.1286
upperneck 52.4516 -7.96661 4.64747
head 24.6979 -4.87314 3.38456
rclavicle -6.20208e-014 -2.8625e-014
rhumerus -48.9928 56.9894 -127.488
rradius 83.0727
rwrist -2.84104
rhand -19.66 -39.0202
rfingers 7.12502
rthumb 6.66809 -68.8952
lclavicle -6.20208e-014 -2.8625e-014
lhumerus -25.8548 -74.0342 101.316
lradius 100.834
lwrist 40.6904
lhand -26.2011 -29.8749
lfingers 7.12502
lthumb 0.351557 0.104509
rfemur -62.4313 -6.69719 9.73432
rtibia 85.7926
rfoot -12.7006 -16.8597
rtoes -25.8661
lfemur -53.2226 -23.1792 -28.721
ltibia 57.88
lfoot -22.572 -0.0958699
ltoes 8.40291
